<?xml version="1.0" encoding="UTF-8" standalone="no"?>
<!-- Created with Inkscape (http://www.inkscape.org/) -->

<svg
   xmlns:svg="http://www.w3.org/2000/svg"
   xmlns="http://www.w3.org/2000/svg"
   version="1.1"
   width="200"
   height="200"
   id="svg2">
  <defs
     id="defs17" />
  <rect
     width="200"
     height="200"
     x="0"
     y="2.6171874e-06"
     id="rect5"
     style="fill:#000000;fill-opacity:1;fill-rule:nonzero;stroke:#000000;stroke-opacity:1" />
  <path
     d="m 273,1.0000048 a 74,74 0 1 1 -148,0 74,74 0 1 1 148,0 z"
     id="path7"
     style="fill:#ffffff;fill-opacity:1;fill-rule:nonzero;stroke:none" />
  <path
     d="m 273,201 a 74,74 0 1 1 -148,0 74,74 0 1 1 148,0 z"
     id="path9"
     style="fill:#c4c4c4;fill-opacity:1;fill-rule:nonzero;stroke:none" />
  <path
     d="m 73,201 a 74,74 0 1 1 -148,0 74,74 0 1 1 148,0 z"
     id="path11"
     style="fill:#ffffff;fill-opacity:1;fill-rule:nonzero;stroke:none" />
  <path
     d="m 73,1.0000048 a 74,74 0 1 1 -148,0 74,74 0 1 1 148,0 z"
     id="path13"
     style="fill:#808080;fill-opacity:1;fill-rule:nonzero;stroke:none" />
</svg>
