<?xml version="1.0" encoding="UTF-8" standalone="no"?>
<!-- Created with Python in Emacs -->
<svg
   xmlns:svg="http://www.w3.org/2000/svg"
   xmlns="http://www.w3.org/2000/svg"
   version="1.1"
   width="200"
   height="200"
   id="svg2">
  <g transform="translate(0,-852.36218)">
      <rect
         width="200"
         height="200"
         x="0"
         y="852.36218"
         style="fill:#000000;fill-opacity:1;fill-rule:nonzero;stroke:#000000;stroke-opacity:1" />
      <path
         d="m 342.85714,826.64789 a 97.14286,88.571426 0 1 1 -194.28572,0 97.14286,88.571426 0 1 1 194.28572,0 z"
         transform="matrix(0.76176468,0,0,0.83548389,11.823541,162.71119)"
         style="fill:#0000ff;fill-opacity:1;fill-rule:nonzero;stroke:none" />
      <path
         d="m 342.85714,826.64789 a 97.14286,88.571426 0 1 1 -194.28572,0 97.14286,88.571426 0 1 1 194.28572,0 z"
         transform="matrix(0.76176468,0,0,0.83548389,11.823541,362.71119)"
         style="fill:#0000ff;fill-opacity:1;fill-rule:nonzero;stroke:none" />
      <path
         d="m 342.85714,826.64789 a 97.14286,88.571426 0 1 1 -194.28572,0 97.14286,88.571426 0 1 1 194.28572,0 z"
         transform="matrix(0.76176468,0,0,0.83548389,-188.17646,362.71119)"
         style="fill:#0000ff;fill-opacity:1;fill-rule:nonzero;stroke:none" />
      <path
         d="m 342.85714,826.64789 a 97.14286,88.571426 0 1 1 -194.28572,0 97.14286,88.571426 0 1 1 194.28572,0 z"
         transform="matrix(0.76176468,0,0,0.83548389,-188.17646,162.71119)"
         style="fill:#0000ff;fill-opacity:1;fill-rule:nonzero;stroke:none" />
  </g>
</svg>
